<svg width="21" height="22" viewBox="0 0 21 22" fill="none" xmlns="http://www.w3.org/2000/svg">
<path d="M0.862641 9.27385C0.633854 9.27385 0.414438 9.18297 0.252662 9.02119C0.0908853 8.85941 0 8.64 0 8.41121V1.51181C0 1.28302 0.0908853 1.06361 0.252662 0.901832C0.414438 0.740055 0.633854 0.64917 0.862641 0.64917H7.76377C7.99255 0.64917 8.21197 0.740055 8.37374 0.901832C8.53552 1.06361 8.62641 1.28302 8.62641 1.51181V8.41121C8.62641 8.64 8.53552 8.85941 8.37374 9.02119C8.21197 9.18297 7.99255 9.27385 7.76377 9.27385H0.862641ZM12.9396 9.27385C12.7108 9.27385 12.4914 9.18297 12.3296 9.02119C12.1679 8.85941 12.077 8.64 12.077 8.41121V1.51181C12.077 1.28302 12.1679 1.06361 12.3296 0.901832C12.4914 0.740055 12.7108 0.64917 12.9396 0.64917H19.839C20.0678 0.64917 20.2872 0.740055 20.449 0.901832C20.6108 1.06361 20.7017 1.28302 20.7017 1.51181V8.41121C20.7017 8.64 20.6108 8.85941 20.449 9.02119C20.2872 9.18297 20.0678 9.27385 19.839 9.27385H12.9396ZM0.862641 21.3508C0.633854 21.3508 0.414438 21.2599 0.252662 21.0982C0.0908853 20.9364 0 20.717 0 20.4882V13.5871C0 13.3583 0.0908853 13.1389 0.252662 12.9771C0.414438 12.8153 0.633854 12.7244 0.862641 12.7244H7.76377C7.99255 12.7244 8.21197 12.8153 8.37374 12.9771C8.53552 13.1389 8.62641 13.3583 8.62641 13.5871V20.4882C8.62641 20.717 8.53552 20.9364 8.37374 21.0982C8.21197 21.2599 7.99255 21.3508 7.76377 21.3508H0.862641ZM12.9396 21.3508C12.7108 21.3508 12.4914 21.2599 12.3296 21.0982C12.1679 20.9364 12.077 20.717 12.077 20.4882V13.5871C12.077 13.3583 12.1679 13.1389 12.3296 12.9771C12.4914 12.8153 12.7108 12.7244 12.9396 12.7244H19.839C20.0678 12.7244 20.2872 12.8153 20.449 12.9771C20.6108 13.1389 20.7017 13.3583 20.7017 13.5871V20.4882C20.7017 20.717 20.6108 20.9364 20.449 21.0982C20.2872 21.2599 20.0678 21.3508 19.839 21.3508H12.9396Z" fill="white"/>
</svg>
