<svg width="139" height="46" viewBox="0 0 139 46" fill="none" xmlns="http://www.w3.org/2000/svg">
<g opacity="0.6" filter="url(#filter0_b_6324_8642)">
<rect x="0.806641" y="0.160156" width="138.092" height="45" rx="22.5" fill="white"/>
</g>
<path d="M32.2956 30.1602V17.0692H34.2708V22.7582H40.7971V17.0692H42.7786V30.1602H40.7971V24.4521H34.2708V30.1602H32.2956ZM49.6373 30.3583C48.7168 30.3583 47.9135 30.1474 47.2275 29.7255C46.5414 29.3036 46.0087 28.7134 45.6294 27.9549C45.2502 27.1964 45.0605 26.31 45.0605 25.2958C45.0605 24.2773 45.2502 23.3867 45.6294 22.6239C46.0087 21.8612 46.5414 21.2688 47.2275 20.8469C47.9135 20.4251 48.7168 20.2141 49.6373 20.2141C50.5577 20.2141 51.361 20.4251 52.0471 20.8469C52.7331 21.2688 53.2658 21.8612 53.6451 22.6239C54.0243 23.3867 54.214 24.2773 54.214 25.2958C54.214 26.31 54.0243 27.1964 53.6451 27.9549C53.2658 28.7134 52.7331 29.3036 52.0471 29.7255C51.361 30.1474 50.5577 30.3583 49.6373 30.3583ZM49.6436 28.7539C50.2402 28.7539 50.7346 28.5962 51.1266 28.2809C51.5186 27.9656 51.8084 27.5458 51.9959 27.0217C52.1877 26.4975 52.2836 25.9201 52.2836 25.2894C52.2836 24.663 52.1877 24.0877 51.9959 23.5636C51.8084 23.0352 51.5186 22.6112 51.1266 22.2915C50.7346 21.9719 50.2402 21.8121 49.6436 21.8121C49.0428 21.8121 48.5442 21.9719 48.1479 22.2915C47.7559 22.6112 47.464 23.0352 47.2722 23.5636C47.0847 24.0877 46.9909 24.663 46.9909 25.2894C46.9909 25.9201 47.0847 26.4975 47.2722 27.0217C47.464 27.5458 47.7559 27.9656 48.1479 28.2809C48.5442 28.5962 49.0428 28.7539 49.6436 28.7539ZM56.3473 30.1602V20.342H58.1818V21.94H58.3033C58.5078 21.3988 58.8423 20.9769 59.3068 20.6744C59.7713 20.3675 60.3274 20.2141 60.9751 20.2141C61.6314 20.2141 62.1811 20.3675 62.6243 20.6744C63.0717 20.9812 63.402 21.4031 63.6151 21.94H63.7173C63.9517 21.4158 64.3246 20.9982 64.8359 20.6871C65.3473 20.3718 65.9567 20.2141 66.6641 20.2141C67.5547 20.2141 68.2812 20.4933 68.8438 21.0515C69.4105 21.6097 69.6939 22.4513 69.6939 23.5763V30.1602H67.7827V23.7553C67.7827 23.0906 67.6016 22.609 67.2393 22.3107C66.8771 22.0124 66.4446 21.8633 65.9418 21.8633C65.3196 21.8633 64.8359 22.055 64.4908 22.4386C64.1456 22.8178 63.973 23.3058 63.973 23.9023V30.1602H62.0682V23.6339C62.0682 23.1012 61.902 22.6729 61.5696 22.3491C61.2372 22.0252 60.8047 21.8633 60.272 21.8633C59.9098 21.8633 59.5753 21.9592 59.2685 22.1509C58.9659 22.3384 58.7209 22.6005 58.5334 22.9371C58.3501 23.2738 58.2585 23.6637 58.2585 24.1069V30.1602H56.3473ZM76.487 30.3583C75.5197 30.3583 74.6866 30.1516 73.9877 29.7383C73.2931 29.3207 72.7562 28.7347 72.377 27.9805C72.002 27.2219 71.8145 26.3335 71.8145 25.315C71.8145 24.3093 72.002 23.4229 72.377 22.6559C72.7562 21.8888 73.2846 21.2901 73.9622 20.8597C74.644 20.4293 75.4409 20.2141 76.3528 20.2141C76.9068 20.2141 77.4437 20.3058 77.9636 20.489C78.4835 20.6722 78.9501 20.9599 79.3635 21.3519C79.7768 21.744 80.1028 22.2532 80.3414 22.8796C80.5801 23.5018 80.6994 24.2582 80.6994 25.1488V25.8263H72.8947V24.3945H78.8265C78.8265 23.8917 78.7243 23.4464 78.5197 23.0586C78.3152 22.6665 78.0275 22.3576 77.6568 22.1317C77.2903 21.9059 76.8599 21.793 76.3656 21.793C75.8287 21.793 75.3599 21.9251 74.9593 22.1893C74.563 22.4492 74.2562 22.7901 74.0389 23.212C73.8258 23.6296 73.7193 24.0835 73.7193 24.5735V25.6921C73.7193 26.3484 73.8343 26.9066 74.0645 27.3668C74.2988 27.8271 74.6248 28.1786 75.0424 28.4215C75.46 28.6602 75.948 28.7795 76.5062 28.7795C76.8684 28.7795 77.1987 28.7283 77.497 28.6261C77.7953 28.5195 78.0531 28.3619 78.2704 28.1531C78.4877 27.9442 78.6539 27.6864 78.769 27.3796L80.5779 27.7056C80.4331 28.2383 80.1731 28.7049 79.7981 29.1055C79.4274 29.5018 78.9608 29.8107 78.3983 30.0323C77.84 30.2496 77.2029 30.3583 76.487 30.3583Z" fill="#424242"/>
<path d="M101.607 22.4107L107.757 16.2607" stroke="#424242" stroke-width="1.125" stroke-linecap="round" stroke-linejoin="round"/>
<path d="M108.358 19.2602V15.6602H104.758" stroke="#424242" stroke-width="1.125" stroke-linecap="round" stroke-linejoin="round"/>
<path d="M100.107 15.6602H98.6074C94.8574 15.6602 93.3574 17.1602 93.3574 20.9102V25.4102C93.3574 29.1602 94.8574 30.6602 98.6074 30.6602H103.107C106.857 30.6602 108.357 29.1602 108.357 25.4102V23.9102" stroke="#424242" stroke-width="1.125" stroke-linecap="round" stroke-linejoin="round"/>
<defs>
<filter id="filter0_b_6324_8642" x="-9.19336" y="-9.83984" width="158.092" height="65" filterUnits="userSpaceOnUse" color-interpolation-filters="sRGB">
<feFlood flood-opacity="0" result="BackgroundImageFix"/>
<feGaussianBlur in="BackgroundImageFix" stdDeviation="5"/>
<feComposite in2="SourceAlpha" operator="in" result="effect1_backgroundBlur_6324_8642"/>
<feBlend mode="normal" in="SourceGraphic" in2="effect1_backgroundBlur_6324_8642" result="shape"/>
</filter>
</defs>
</svg>
