<svg width="114" height="45" viewBox="0 0 114 45" fill="none" xmlns="http://www.w3.org/2000/svg">
<g opacity="0.6" filter="url(#filter0_b_6324_8630)">
<rect x="0.0996094" width="113.901" height="45" rx="22.5" fill="white"/>
</g>
<path d="M30.4287 12.5291C26.7973 12.5291 23.8462 15.4803 23.8462 19.1117V22.2824C23.8462 22.9516 23.5609 23.9719 23.2208 24.5424L21.9592 26.6379C21.1802 27.9325 21.7178 29.3697 23.144 29.8525C27.8725 31.4323 32.9739 31.4323 37.7024 29.8525C39.0298 29.4136 39.6113 27.8447 38.8872 26.6379L37.6256 24.5424C37.2965 23.9719 37.0112 22.9516 37.0112 22.2824V19.1117C37.0112 15.4913 34.0491 12.5291 30.4287 12.5291Z" stroke="#424242" stroke-width="1.60002" stroke-miterlimit="10" stroke-linecap="round"/>
<path d="M32.4577 12.845C32.1176 12.7463 31.7665 12.6695 31.4045 12.6256C30.3513 12.4939 29.3419 12.5707 28.3984 12.845C28.7166 12.0331 29.5065 11.4626 30.428 11.4626C31.3496 11.4626 32.1395 12.0331 32.4577 12.845Z" stroke="#424242" stroke-width="1.60002" stroke-miterlimit="10" stroke-linecap="round" stroke-linejoin="round"/>
<path d="M33.7192 30.2458C33.7192 32.0561 32.2382 33.5372 30.428 33.5372C29.5284 33.5372 28.6946 33.1642 28.1022 32.5717C27.5097 31.9793 27.1367 31.1455 27.1367 30.2458" stroke="#424242" stroke-width="1.60002" stroke-miterlimit="10"/>
<line x1="54.3012" y1="6" x2="54.3012" y2="39" stroke="#424242" stroke-width="0.2"/>
<path d="M81.2012 29.5C85.0672 29.5 88.2012 26.366 88.2012 22.5C88.2012 18.634 85.0672 15.5 81.2012 15.5C77.3352 15.5 74.2012 18.634 74.2012 22.5C74.2012 26.366 77.3352 29.5 81.2012 29.5Z" fill="#424242"/>
<path d="M87.9683 29.7529L87.5012 30.22L87.9683 29.7529C87.8363 29.6209 87.8363 29.4091 87.9683 29.2771C88.1003 29.1451 88.312 29.1451 88.444 29.2771L88.9112 28.81L88.444 29.2771L88.574 29.4071C88.706 29.5391 88.706 29.7509 88.574 29.8829C88.51 29.9468 88.429 29.9794 88.3412 29.9794C88.2579 29.9794 88.1711 29.9496 88.0911 29.8756L87.9683 29.7529ZM88.444 15.7329L88.9112 16.2L88.444 15.7329C88.38 15.7968 88.299 15.8294 88.2112 15.8294C88.1284 15.8294 88.0423 15.8 87.9627 15.7271C87.8363 15.5948 87.8382 15.3873 87.9683 15.2571L88.0983 15.1271C88.2303 14.9951 88.442 14.9951 88.574 15.1271C88.706 15.2591 88.706 15.4709 88.574 15.6029L88.444 15.7329ZM73.8353 15.6105L73.827 15.6015L73.8183 15.5929C73.6863 15.4609 73.6863 15.2491 73.8183 15.1171C73.9503 14.9851 74.162 14.9851 74.294 15.1171L74.424 15.2471L74.8912 14.78L74.424 15.2471C74.556 15.3791 74.556 15.5909 74.424 15.7229L74.418 15.7288L74.4122 15.735C74.3539 15.7963 74.2705 15.8294 74.1912 15.8294C74.1103 15.8294 74.0262 15.8013 73.9482 15.7321L73.8353 15.6105ZM81.2012 32.7994C80.9802 32.7994 80.8618 32.6503 80.8618 32.5V32.42C80.8618 32.2349 81.016 32.0806 81.2012 32.0806C81.3863 32.0806 81.5405 32.2349 81.5405 32.42C81.5405 32.639 81.3533 32.7994 81.2012 32.7994ZM74.0612 29.9794C73.9784 29.9794 73.8923 29.95 73.8127 29.8771C73.6863 29.7448 73.6882 29.5372 73.8183 29.4071L73.9483 29.2771C74.0803 29.1451 74.292 29.1451 74.424 29.2771C74.556 29.4091 74.556 29.6209 74.424 29.7529L74.294 29.8829C74.2325 29.9444 74.1425 29.9794 74.0612 29.9794ZM91.2012 22.8394H91.1212C90.936 22.8394 90.7818 22.6851 90.7818 22.5C90.7818 22.3149 90.936 22.1606 91.1212 22.1606C91.3402 22.1606 91.5005 22.3478 91.5005 22.5C91.5005 22.721 91.3515 22.8394 91.2012 22.8394ZM71.2812 22.8394H71.2012C71.016 22.8394 70.8618 22.6851 70.8618 22.5C70.8618 22.3149 71.016 22.1606 71.2012 22.1606C71.4202 22.1606 71.5805 22.3478 71.5805 22.5C71.5805 22.721 71.4315 22.8394 71.2812 22.8394ZM81.2012 12.8794C80.9802 12.8794 80.8618 12.7303 80.8618 12.58V12.5C80.8618 12.3149 81.016 12.1606 81.2012 12.1606C81.3863 12.1606 81.5405 12.3149 81.5405 12.5C81.5405 12.719 81.3533 12.8794 81.2012 12.8794Z" fill="#424242" stroke="#424242" stroke-width="1.32128"/>
<defs>
<filter id="filter0_b_6324_8630" x="-9.90039" y="-10" width="133.9" height="65" filterUnits="userSpaceOnUse" color-interpolation-filters="sRGB">
<feFlood flood-opacity="0" result="BackgroundImageFix"/>
<feGaussianBlur in="BackgroundImageFix" stdDeviation="5"/>
<feComposite in2="SourceAlpha" operator="in" result="effect1_backgroundBlur_6324_8630"/>
<feBlend mode="normal" in="SourceGraphic" in2="effect1_backgroundBlur_6324_8630" result="shape"/>
</filter>
</defs>
</svg>
